<svg width="28" height="27" viewBox="0 0 28 27" fill="none" xmlns="http://www.w3.org/2000/svg">
<path d="M13.5 2.1618L14.9118 6.50684L14.923 6.54139H14.9593H19.528L15.8319 9.22677L15.8025 9.24812L15.8137 9.28267L17.2255 13.6277L13.5294 10.9423L13.5 10.921L13.4706 10.9423L9.7745 13.6277L11.1863 9.28267L11.1975 9.24812L11.1681 9.22677L7.47202 6.54139H12.0407H12.077L12.0882 6.50684L13.5 2.1618Z" fill="white" stroke="#666464" stroke-width="0.1"/>
<path d="M20.5 11.1618L21.9118 15.5068L21.923 15.5414H21.9593H26.528L22.8319 18.2268L22.8025 18.2481L22.8137 18.2827L24.2255 22.6277L20.5294 19.9423L20.5 19.921L20.4706 19.9423L16.7745 22.6277L18.1863 18.2827L18.1975 18.2481L18.1681 18.2268L14.472 15.5414H19.0407H19.077L19.0882 15.5068L20.5 11.1618Z" fill="white" stroke="#666464" stroke-width="0.1"/>
<path d="M6.5 11.1618L7.91179 15.5068L7.92301 15.5414H7.95934H12.528L8.83187 18.2268L8.80248 18.2481L8.81371 18.2827L10.2255 22.6277L6.52939 19.9423L6.5 19.921L6.47061 19.9423L2.7745 22.6277L4.18629 18.2827L4.19752 18.2481L4.16813 18.2268L0.472018 15.5414H5.04066H5.07699L5.08821 15.5068L6.5 11.1618Z" fill="white" stroke="#666464" stroke-width="0.1"/>
</svg>
