<svg width="25" height="25" viewBox="0 0 25 25" fill="none" xmlns="http://www.w3.org/2000/svg">
<g filter="url(#filter0_d_1313_5)">
<mask id="path-1-outside-1_1313_5" maskUnits="userSpaceOnUse" x="0.5" y="1" width="23" height="23" fill="black">
<rect fill="white" x="0.5" y="1" width="23" height="23"/>
<path fill-rule="evenodd" clip-rule="evenodd" d="M20.1037 6.35367C20.3623 6.13709 20.4755 5.6138 19.4783 4.67529C15.1796 0.629621 7.91179 1.33967 3.90321 5.67811L2.85862 6.96926V4.52768L2.85242 4.43465C2.80744 4.10001 2.52322 3.84208 2.17931 3.84208C1.80414 3.84208 1.5 4.14904 1.5 4.52768V8.66362C1.5 9.16848 1.90552 9.57775 2.40575 9.57775H6.95134L7.04352 9.57149C7.37509 9.52609 7.63065 9.23925 7.63065 8.89216L7.62445 8.79913C7.57947 8.46449 7.29525 8.20656 6.95134 8.20656L3.61673 8.20607L3.95837 7.77775L4.92659 6.57883L5.11461 6.38132C8.60282 2.82246 14.8688 2.21194 18.5518 5.67811L18.8045 5.90958C19.5017 6.52784 19.7548 6.56157 19.9826 6.43533L20.0676 6.38132L20.1037 6.35367ZM23.0001 20.7619V16.626C23.0001 16.1211 22.5945 15.7119 22.0943 15.7119H17.5487L17.4565 15.7181C17.125 15.7635 16.8694 16.0504 16.8694 16.3975L16.8756 16.4905C16.9206 16.8251 17.2048 17.083 17.5487 17.083L20.8833 17.0835L20.5417 17.5119L19.5735 18.7108L19.3854 18.9083C15.8972 22.4672 9.63126 23.0777 5.9483 19.6115L5.69555 19.38C4.99839 18.7618 4.74529 18.728 4.5175 18.8543L4.43245 18.9083L4.39637 18.9359C4.13771 19.1525 4.02452 19.6758 5.02173 20.6143C9.32041 24.66 16.5883 23.9499 20.5968 19.6115L21.6414 18.3204V20.7619L21.6476 20.855C21.6926 21.1896 21.9768 21.4475 22.3207 21.4475C22.6959 21.4475 23.0001 21.1406 23.0001 20.7619Z"/>
</mask>
<path fill-rule="evenodd" clip-rule="evenodd" d="M20.1037 6.35367C20.3623 6.13709 20.4755 5.6138 19.4783 4.67529C15.1796 0.629621 7.91179 1.33967 3.90321 5.67811L2.85862 6.96926V4.52768L2.85242 4.43465C2.80744 4.10001 2.52322 3.84208 2.17931 3.84208C1.80414 3.84208 1.5 4.14904 1.5 4.52768V8.66362C1.5 9.16848 1.90552 9.57775 2.40575 9.57775H6.95134L7.04352 9.57149C7.37509 9.52609 7.63065 9.23925 7.63065 8.89216L7.62445 8.79913C7.57947 8.46449 7.29525 8.20656 6.95134 8.20656L3.61673 8.20607L3.95837 7.77775L4.92659 6.57883L5.11461 6.38132C8.60282 2.82246 14.8688 2.21194 18.5518 5.67811L18.8045 5.90958C19.5017 6.52784 19.7548 6.56157 19.9826 6.43533L20.0676 6.38132L20.1037 6.35367ZM23.0001 20.7619V16.626C23.0001 16.1211 22.5945 15.7119 22.0943 15.7119H17.5487L17.4565 15.7181C17.125 15.7635 16.8694 16.0504 16.8694 16.3975L16.8756 16.4905C16.9206 16.8251 17.2048 17.083 17.5487 17.083L20.8833 17.0835L20.5417 17.5119L19.5735 18.7108L19.3854 18.9083C15.8972 22.4672 9.63126 23.0777 5.9483 19.6115L5.69555 19.38C4.99839 18.7618 4.74529 18.728 4.5175 18.8543L4.43245 18.9083L4.39637 18.9359C4.13771 19.1525 4.02452 19.6758 5.02173 20.6143C9.32041 24.66 16.5883 23.9499 20.5968 19.6115L21.6414 18.3204V20.7619L21.6476 20.855C21.6926 21.1896 21.9768 21.4475 22.3207 21.4475C22.6959 21.4475 23.0001 21.1406 23.0001 20.7619Z" fill="white"/>
<path d="M19.4783 4.67529L19.6154 4.52965L19.6154 4.52965L19.4783 4.67529ZM20.1037 6.35367L20.2254 6.51259L20.2321 6.50702L20.1037 6.35367ZM3.90321 5.67811L3.75599 5.54209L3.74772 5.55232L3.90321 5.67811ZM2.85862 6.96926H2.65862V7.53444L3.01411 7.09505L2.85862 6.96926ZM2.85862 4.52768H3.05906L3.05818 4.51438L2.85862 4.52768ZM2.85242 4.43465L3.05243 4.42132L3.05064 4.408L2.85242 4.43465ZM6.95134 9.57775L6.95134 9.77821L6.96489 9.77729L6.95134 9.57775ZM7.04352 9.57149L7.0571 9.7715L7.07065 9.76964L7.04352 9.57149ZM7.63065 8.89216H7.8311L7.83021 8.87885L7.63065 8.89216ZM7.62445 8.79913L7.82446 8.78579L7.82267 8.77248L7.62445 8.79913ZM6.95134 8.20656L6.95131 8.40656H6.95134V8.20656ZM3.61673 8.20607L3.46038 8.08136L3.20143 8.40601L3.6167 8.40607L3.61673 8.20607ZM3.95837 7.77775L3.80277 7.65209L3.80202 7.65303L3.95837 7.77775ZM4.92659 6.57883L4.78173 6.44093L4.77611 6.44683L4.771 6.45317L4.92659 6.57883ZM5.11461 6.38132L4.97176 6.24131L4.96975 6.24342L5.11461 6.38132ZM18.5518 5.67811L18.4147 5.82377L18.4167 5.82561L18.5518 5.67811ZM18.8045 5.90958L18.6694 6.05709L18.6718 6.05921L18.8045 5.90958ZM19.9826 6.43533L20.0797 6.61057L20.0898 6.60416L19.9826 6.43533ZM20.0676 6.38132L20.1748 6.55015L20.1822 6.54543L20.1892 6.54008L20.0676 6.38132ZM17.5487 15.7119V15.5114L17.5352 15.5123L17.5487 15.7119ZM17.4565 15.7181L17.443 15.5181L17.4294 15.52L17.4565 15.7181ZM16.8694 16.3975H16.669L16.6698 16.4108L16.8694 16.3975ZM16.8756 16.4905L16.6756 16.5038L16.6774 16.5171L16.8756 16.4905ZM17.5487 17.083L17.5487 16.883H17.5487V17.083ZM20.8833 17.0835L21.0397 17.2083L21.2986 16.8836L20.8834 16.8835L20.8833 17.0835ZM20.5417 17.5119L20.6973 17.6375L20.698 17.6366L20.5417 17.5119ZM19.5735 18.7108L19.7183 18.8487L19.7239 18.8428L19.7291 18.8364L19.5735 18.7108ZM19.3854 18.9083L19.5283 19.0483L19.5303 19.0462L19.3854 18.9083ZM5.9483 19.6115L6.08539 19.4658L6.08338 19.464L5.9483 19.6115ZM5.69555 19.38L5.83064 19.2325L5.82825 19.2304L5.69555 19.38ZM4.5175 18.8543L4.42038 18.679L4.41028 18.6854L4.5175 18.8543ZM4.43245 18.9083L4.32523 18.7395L4.3178 18.7442L4.31082 18.7495L4.43245 18.9083ZM4.39637 18.9359L4.27462 18.777L4.26797 18.7826L4.39637 18.9359ZM5.02173 20.6143L5.1588 20.4687L5.1588 20.4687L5.02173 20.6143ZM20.5968 19.6115L20.7441 19.7475L20.7523 19.7373L20.5968 19.6115ZM21.6414 18.3204H21.8414V17.7552L21.4859 18.1946L21.6414 18.3204ZM21.6414 20.7619H21.441L21.4419 20.7752L21.6414 20.7619ZM21.6476 20.855L21.4476 20.8683L21.4494 20.8816L21.6476 20.855ZM19.3413 4.82093C19.8284 5.27941 20.0162 5.61166 20.0672 5.83052C20.1141 6.03251 20.0466 6.14059 19.9753 6.20033L20.2321 6.50702C20.4194 6.35017 20.5378 6.08832 20.4568 5.73989C20.3796 5.40833 20.1255 5.00968 19.6154 4.52965L19.3413 4.82093ZM4.0501 5.81384C7.99371 1.54572 15.1343 0.86162 19.3413 4.82093L19.6154 4.52965C15.225 0.397622 7.82988 1.13361 3.75631 5.54239L4.0501 5.81384ZM3.01411 7.09505L4.05869 5.80391L3.74772 5.55232L2.70314 6.84346L3.01411 7.09505ZM2.65862 4.52768V6.96926H3.05862V4.52768H2.65862ZM2.65286 4.44795L2.65906 4.54098L3.05818 4.51438L3.05198 4.42135L2.65286 4.44795ZM2.17931 4.04208C2.42032 4.04208 2.6222 4.22318 2.6542 4.46129L3.05064 4.408C2.99268 3.97684 2.62612 3.64208 2.17931 3.64208V4.04208ZM1.7 4.52768C1.7 4.25775 1.91633 4.04208 2.17931 4.04208V3.64208C1.69195 3.64208 1.3 4.04032 1.3 4.52768H1.7ZM1.7 8.66362V4.52768H1.3V8.66362H1.7ZM2.40575 9.37775C2.01771 9.37775 1.7 9.05977 1.7 8.66362H1.3C1.3 9.2772 1.79333 9.77775 2.40575 9.77775V9.37775ZM6.95134 9.37775H2.40575V9.77775H6.95134V9.37775ZM7.02997 9.37195L6.93779 9.37821L6.96489 9.77729L7.05707 9.77103L7.02997 9.37195ZM7.43065 8.89216C7.43065 9.13932 7.24887 9.34151 7.01639 9.37334L7.07065 9.76964C7.50132 9.71068 7.83065 9.33917 7.83065 8.89216H7.43065ZM7.42489 8.81243L7.4311 8.90546L7.83021 8.87885L7.82401 8.78582L7.42489 8.81243ZM6.95134 8.40656C7.19235 8.40656 7.39423 8.58765 7.42623 8.82577L7.82267 8.77248C7.76471 8.34132 7.39815 8.00656 6.95134 8.00656V8.40656ZM3.6167 8.40607L6.95131 8.40656L6.95137 8.00656L3.61676 8.00607L3.6167 8.40607ZM3.80202 7.65303L3.46038 8.08136L3.77309 8.33078L4.11473 7.90246L3.80202 7.65303ZM4.771 6.45317L3.80278 7.65209L4.11397 7.9034L5.08219 6.70449L4.771 6.45317ZM4.96975 6.24342L4.78173 6.44093L5.07145 6.71672L5.25947 6.51921L4.96975 6.24342ZM18.6888 5.53247C14.9143 1.98008 8.52379 2.61737 4.97178 6.24132L5.25744 6.52131C8.68186 3.02754 14.8233 2.44379 18.4147 5.82376L18.6888 5.53247ZM18.9396 5.76208L18.6868 5.53062L18.4167 5.82561L18.6694 6.05707L18.9396 5.76208ZM19.8856 6.2604C19.8464 6.28211 19.816 6.29169 19.7857 6.29393C19.7549 6.2962 19.7103 6.29193 19.6424 6.26537C19.4986 6.20918 19.2834 6.06694 18.9372 5.75994L18.6718 6.05921C19.0228 6.37048 19.2827 6.55423 19.4967 6.63791C19.6077 6.68129 19.7126 6.70042 19.8152 6.69284C19.9182 6.68522 20.0048 6.65167 20.0795 6.61026L19.8856 6.2604ZM19.9604 6.21248L19.8753 6.2665L20.0898 6.60416L20.1748 6.55015L19.9604 6.21248ZM19.9821 6.19491L19.946 6.22255L20.1892 6.54008L20.2253 6.51244L19.9821 6.19491ZM22.8001 16.626V20.7619H23.2001V16.626H22.8001ZM22.0943 15.9119C22.4823 15.9119 22.8001 16.2298 22.8001 16.626H23.2001C23.2001 16.0124 22.7067 15.5119 22.0943 15.5119V15.9119ZM17.5487 15.9119H22.0943V15.5119H17.5487V15.9119ZM17.4701 15.9177L17.5623 15.9114L17.5352 15.5123L17.443 15.5186L17.4701 15.9177ZM17.0694 16.3975C17.0694 16.1503 17.2512 15.9481 17.4837 15.9163L17.4294 15.52C16.9987 15.5789 16.6694 15.9504 16.6694 16.3975H17.0694ZM17.0752 16.4772L17.069 16.3842L16.6698 16.4108L16.676 16.5038L17.0752 16.4772ZM17.5487 16.883C17.3077 16.883 17.1058 16.702 17.0738 16.4638L16.6774 16.5171C16.7353 16.9483 17.1019 17.283 17.5487 17.283V16.883ZM20.8834 16.8835L17.5487 16.883L17.5487 17.283L20.8833 17.2835L20.8834 16.8835ZM20.698 17.6366L21.0397 17.2083L20.727 16.9588L20.3853 17.3871L20.698 17.6366ZM19.7291 18.8364L20.6973 17.6375L20.3861 17.3862L19.4179 18.5851L19.7291 18.8364ZM19.5303 19.0462L19.7183 18.8487L19.4286 18.5729L19.2406 18.7704L19.5303 19.0462ZM5.81123 19.7571C9.58578 23.3095 15.9763 22.6722 19.5283 19.0483L19.2426 18.7683C15.8182 22.2621 9.67673 22.8458 6.08537 19.4659L5.81123 19.7571ZM5.56048 19.5275L5.81323 19.759L6.08338 19.464L5.83063 19.2325L5.56048 19.5275ZM4.61445 19.0292C4.65362 19.0075 4.68408 18.9979 4.71438 18.9957C4.74511 18.9934 4.78974 18.9977 4.85769 19.0242C5.00141 19.0804 5.21668 19.2227 5.56285 19.5297L5.82825 19.2304C5.47726 18.9191 5.21739 18.7354 5.00333 18.6517C4.89239 18.6083 4.78746 18.5892 4.68488 18.5968C4.58187 18.6044 4.49527 18.6379 4.42055 18.6793L4.61445 19.0292ZM4.53967 19.0771L4.62472 19.0231L4.41028 18.6854L4.32523 18.7395L4.53967 19.0771ZM4.518 19.0947L4.55408 19.0671L4.31082 18.7495L4.27474 18.7772L4.518 19.0947ZM5.1588 20.4687C4.67165 20.0102 4.48381 19.678 4.4329 19.4591C4.38591 19.2571 4.45342 19.149 4.52477 19.0893L4.26797 18.7826C4.08066 18.9394 3.96225 19.2013 4.0433 19.5497C4.12043 19.8813 4.3746 20.2799 4.88466 20.76L5.1588 20.4687ZM20.45 19.4758C16.5063 23.7439 9.36572 24.428 5.1588 20.4687L4.88466 20.76C9.2751 24.892 16.6702 24.156 20.7437 19.7472L20.45 19.4758ZM21.4859 18.1946L20.4414 19.4857L20.7523 19.7373L21.7969 18.4461L21.4859 18.1946ZM21.8414 20.7619V18.3204H21.4414V20.7619H21.8414ZM21.8472 20.8417L21.841 20.7486L21.4419 20.7752L21.4481 20.8683L21.8472 20.8417ZM22.3207 21.2475C22.0797 21.2475 21.8779 21.0664 21.8459 20.8283L21.4494 20.8816C21.5074 21.3128 21.8739 21.6475 22.3207 21.6475V21.2475ZM22.8001 20.7619C22.8001 21.0319 22.5837 21.2475 22.3207 21.2475V21.6475C22.8081 21.6475 23.2001 21.2493 23.2001 20.7619H22.8001Z" fill="black" fill-opacity="0.2" mask="url(#path-1-outside-1_1313_5)"/>
</g>
<defs>
<filter id="filter0_d_1313_5" x="0.300049" y="0.799805" width="23.9" height="23.6899" filterUnits="userSpaceOnUse" color-interpolation-filters="sRGB">
<feFlood flood-opacity="0" result="BackgroundImageFix"/>
<feColorMatrix in="SourceAlpha" type="matrix" values="0 0 0 0 0 0 0 0 0 0 0 0 0 0 0 0 0 0 127 0" result="hardAlpha"/>
<feOffset/>
<feGaussianBlur stdDeviation="0.5"/>
<feColorMatrix type="matrix" values="0 0 0 0 0.14902 0 0 0 0 0.14902 0 0 0 0 0.14902 0 0 0 0.4 0"/>
<feBlend mode="normal" in2="BackgroundImageFix" result="effect1_dropShadow_1313_5"/>
<feBlend mode="normal" in="SourceGraphic" in2="effect1_dropShadow_1313_5" result="shape"/>
</filter>
</defs>
</svg>
